<?xml version="1.0" standalone="no"?>
<!DOCTYPE svg PUBLIC "-//W3C//DTD SVG 20010904//EN"
 "http://www.w3.org/TR/2001/REC-SVG-20010904/DTD/svg10.dtd">
<svg version="1.0" xmlns="http://www.w3.org/2000/svg"
 width="300.000000pt" height="300.000000pt" viewBox="0 0 300.000000 300.000000"
 preserveAspectRatio="xMidYMid meet">
<metadata>
Created by potrace 1.10, written by Peter Selinger 2001-2011
</metadata>
<g transform="translate(0.000000,300.000000) scale(0.050000,-0.050000)"
fill="#000000" stroke="none">
<path d="M2570 5820 c-417 -25 -1065 -148 -1467 -277 -97 -31 -196 -53 -221
-50 -30 5 -40 -1 -30 -16 9 -15 5 -18 -10 -8 -33 20 -206 -46 -190 -73 8 -13
-2 -15 -27 -8 -49 16 -149 -26 -131 -54 7 -12 2 -14 -13 -4 -33 20 -301 -108
-301 -144 0 -14 10 -26 22 -26 13 0 16 -22 9 -55 -30 -135 -22 -1994 8 -2018
25 -19 25 -32 6 -70 -37 -71 -49 -1679 -13 -1748 21 -41 21 -61 -4 -121 -54
-128 125 -247 667 -445 l315 -115 33 -99 c18 -55 39 -141 46 -192 27 -182 98
-203 521 -157 680 74 1024 87 1099 41 84 -52 159 -52 245 1 65 41 78 41 312
21 651 -59 910 -86 974 -104 401 -109 628 28 632 380 l2 189 195 65 c396 133
639 314 563 418 -26 34 -24 47 12 106 51 82 47 1711 -4 1773 -21 25 -20 37 6
65 27 30 27 40 3 73 -20 28 -22 46 -7 64 32 39 25 1817 -8 1872 -19 33 -19 43
1 50 57 21 17 66 -109 125 -73 34 -146 58 -161 52 -16 -6 -22 -2 -14 11 10 15
-1 18 -31 8 -29 -9 -40 -7 -32 6 16 26 -59 52 -91 32 -14 -8 -18 -5 -10 7 16
27 -116 74 -150 53 -15 -9 -18 -5 -7 12 12 20 5 23 -27 15 -24 -6 -38 -3 -32
7 6 10 -17 18 -51 18 -34 0 -131 22 -216 50 -692 222 -1510 318 -2314 270z
m1320 -158 c495 -73 1244 -281 1635 -453 246 -108 246 -108 263 -162 12 -40
-6 -35 -215 53 -466 198 -922 324 -1513 420 -148 24 -315 51 -370 60 -131 22
-134 13 -16 -47 104 -53 208 -147 262 -238 18 -30 45 -55 59 -55 31 0 23 18
-50 117 -93 125 -21 127 105 3 131 -129 133 -140 31 -140 -43 0 -101 -8 -128
-19 -53 -20 -73 2 -73 78 0 158 -505 381 -862 381 -399 0 -854 -199 -889 -390
l-13 -68 -103 11 c-169 17 -170 19 -56 134 147 149 215 149 104 2 -116 -154
-64 -148 57 6 49 62 129 131 194 168 147 83 153 83 -297 6 -671 -115 -1104
-231 -1505 -403 -239 -103 -267 -110 -255 -63 31 117 1024 452 1685 568 569
100 1397 113 1950 31z m-590 -123 c260 -71 434 -169 449 -251 21 -112 -8 -347
-41 -334 -33 12 -40 246 -8 246 36 0 21 63 -25 102 -110 94 -464 198 -676 198
-177 0 -575 -113 -654 -186 -44 -40 -65 -129 -25 -104 12 8 20 -33 20 -108 0
-100 -7 -124 -40 -142 -39 -21 -40 -15 -40 179 l0 200 75 47 c75 47 293 135
425 171 125 35 380 26 540 -18z m-1420 -148 c0 -16 -22 -54 -49 -85 l-50 -56
0 85 c-1 78 3 85 49 85 30 0 50 -11 50 -29z m1206 -32 c42 0 42 -2 7 -28 -25
-20 -32 -41 -23 -71 13 -39 10 -41 -29 -20 -33 17 -50 17 -72 -1 -24 -20 -29
-15 -29 25 0 26 -11 59 -24 72 -19 19 -15 24 18 24 23 0 48 16 55 35 13 33 15
33 33 0 11 -19 40 -35 64 -36z m1134 44 c0 -10 6 -46 13 -80 16 -85 -11 -79
-79 17 l-57 80 62 0 c33 0 61 -8 61 -17z m-1560 -73 c0 -18 18 -30 44 -30 34
0 39 -5 20 -24 -13 -13 -24 -46 -24 -72 0 -41 -5 -45 -30 -24 -24 20 -36 20
-60 0 -25 -21 -30 -17 -30 24 0 26 -11 59 -24 72 -19 19 -14 24 20 24 26 0 44
12 44 30 0 17 9 30 20 30 11 0 20 -13 20 -30z m784 -30 c40 0 40 -2 9 -37 -19
-21 -28 -52 -21 -70 13 -35 -21 -46 -42 -13 -8 13 -26 13 -53 -1 -34 -19 -39
-16 -34 16 4 22 -5 54 -20 72 -25 29 -23 33 15 33 24 0 49 14 56 32 11 30 13
30 30 0 10 -18 37 -32 60 -32z m-1784 -58 c0 -73 -5 -80 -65 -93 -125 -27
-150 -50 -88 -82 l54 -29 -50 -65 c-89 -116 -155 -343 -94 -324 32 10 42 -3
60 -76 12 -48 36 -99 53 -113 57 -47 -54 -347 -155 -418 -30 -21 -33 -31 -13
-43 21 -13 19 -32 -12 -93 -39 -77 -61 -469 -29 -516 8 -11 25 -96 39 -190 15
-93 39 -189 54 -213 24 -36 23 -44 -3 -54 -40 -15 -40 -105 -1 -120 21 -8 30
1 30 32 0 42 1 42 35 8 33 -34 31 -39 -43 -105 l-79 -68 21 -115 c14 -75 14
-119 2 -127 -12 -8 2 -47 32 -94 49 -79 50 -84 18 -139 -46 -80 -22 -185 32
-137 46 42 67 40 96 -5 19 -32 14 -44 -35 -80 -71 -53 -75 -53 -83 -2 -5 37
-10 38 -43 14 -46 -34 -32 -93 29 -132 31 -19 49 -20 64 -5 12 12 27 22 33 22
12 0 12 -3 36 -243 8 -85 21 -160 29 -167 25 -26 39 120 17 180 l-22 60 40
-50 c29 -36 40 -81 41 -160 l0 -110 -107 0 c-117 0 -162 25 -181 101 -16 64
-91 65 -162 4 l-53 -46 41 -52 c54 -69 53 -101 -3 -93 -29 4 -47 22 -51 51 -7
50 -8 50 -52 33 -18 -7 -32 -29 -32 -50 0 -27 -14 -38 -50 -38 -64 0 -63 -10
10 -93 33 -38 60 -84 60 -103 0 -19 6 -54 13 -79 11 -42 8 -43 -51 -23 -77 27
-98 58 -55 82 48 27 40 87 -17 124 -38 25 -50 50 -50 103 0 73 -23 92 -143
117 -36 8 -60 31 -74 72 -22 64 -60 82 -56 27 2 -18 -8 -37 -22 -41 -29 -11
-75 95 -49 112 17 11 50 212 47 289 -1 47 -40 93 -96 114 -43 16 -44 26 -42
263 3 240 -31 379 -84 347 -8 -5 -15 2 -15 15 -1 13 -8 49 -16 79 -18 68 -5
68 125 6 56 -27 141 -59 189 -71 l86 -22 0 -484 1 -484 55 -85 c60 -94 60 -94
115 -64 51 27 51 119 -1 184 -38 49 -40 82 -40 673 0 636 4 664 76 572 50 -63
85 -63 142 -2 61 65 81 379 26 410 -30 17 -31 25 -6 65 22 36 27 162 25 620
l-3 575 -51 51 c-28 28 -55 51 -61 51 -5 0 -9 -235 -7 -522 3 -540 -2 -573
-79 -549 -42 14 -60 71 -22 71 32 0 23 95 -10 107 -25 10 -30 80 -30 461 l0
449 -58 42 c-32 22 -63 41 -68 41 -5 0 -7 -263 -4 -585 l5 -585 -182 -89
c-101 -49 -190 -93 -198 -97 -8 -4 -15 61 -15 146 0 89 8 148 19 141 10 -6 14
-33 9 -60 -4 -27 1 -54 12 -61 11 -7 16 -20 11 -29 -6 -9 3 -28 19 -41 24 -20
31 -19 33 3 2 15 5 36 8 47 2 11 5 41 7 66 3 64 42 34 43 -32 l0 -54 46 52
c35 40 52 47 78 30 54 -34 61 -1 20 91 -54 123 -89 148 -135 97 -53 -58 -70
-49 -70 35 1 114 24 140 103 110 115 -43 157 37 66 127 -40 41 -62 48 -110 38
-46 -10 -59 -6 -59 19 0 17 -22 42 -50 55 -46 21 -50 33 -50 158 0 74 -5 149
-12 166 -16 42 29 41 75 -1 27 -24 37 -62 37 -136 0 -98 81 -183 129 -135 21
20 12 384 -10 384 -21 0 -100 165 -98 207 4 141 273 268 849 403 295 69 310
68 310 -28z m3087 7 c476 -117 595 -164 697 -276 l94 -103 1 -384 c1 -235 -7
-388 -19 -396 -11 -7 -20 -43 -20 -80 0 -37 9 -73 20 -80 12 -7 20 -114 20
-252 l0 -241 -85 -100 c-47 -56 -111 -112 -143 -126 l-57 -26 97 -65 c193
-130 186 -110 187 -608 1 -389 -3 -443 -34 -477 -32 -36 -32 -39 0 -58 30 -16
35 -53 35 -280 l0 -262 -89 -124 c-49 -69 -112 -140 -140 -159 l-52 -33 12 76
c15 91 -102 202 -173 164 -19 -10 -62 -19 -94 -19 -39 0 -69 -15 -88 -44 l-29
-44 -79 41 c-63 32 -105 38 -223 31 -154 -9 -195 18 -90 58 74 28 125 77 125
120 0 20 19 49 43 66 93 65 12 114 -107 65 -200 -83 -261 -75 -173 24 81 90
119 173 92 200 -34 34 6 28 45 -7 44 -40 165 73 123 115 -21 20 -31 18 -53
-11 -33 -46 -117 -5 -103 50 5 19 1 37 -8 40 -10 3 -10 19 0 34 15 25 25 24
68 -4 79 -52 92 11 30 138 -16 32 -11 59 20 118 27 50 37 95 29 134 -11 56 -9
59 54 52 l65 -6 -4 -450 -3 -450 66 64 c36 34 91 66 122 69 l56 7 0 540 0 540
-86 23 c-47 13 -122 25 -166 26 -93 2 -170 20 -170 40 0 36 60 90 75 67 49
-74 171 -68 152 8 -14 56 16 85 87 86 59 0 78 37 40 75 -25 25 -43 27 -88 10
-71 -27 -166 -48 -166 -37 0 5 13 79 30 165 39 204 38 443 -2 581 -25 85 -27
114 -8 126 36 22 16 87 -33 109 -23 10 -71 76 -106 147 l-63 129 55 128 c31
70 63 127 71 127 46 0 -23 235 -99 337 -48 65 -41 101 20 103 49 1 1 39 -73
57 -84 22 -88 26 -96 105 l-7 82 100 -13 c56 -7 190 -35 298 -62z m-2233 -108
c-5 -22 1 -43 13 -49 13 -5 3 -7 -21 -5 -56 7 -86 33 -37 33 30 0 32 5 11 30
-21 25 -19 30 10 30 25 0 32 -11 24 -39z m-444 -28 c75 -23 80 -30 84 -104 2
-43 10 -99 17 -123 17 -58 -26 -51 -108 18 -105 89 -202 111 -247 56 -35 -43
-35 -46 -1 -72 33 -25 32 -27 -7 -27 -61 -1 -123 -144 -94 -218 51 -129 52
-135 15 -84 -20 27 -43 81 -50 120 l-14 71 -3 -80 c-1 -44 12 -106 28 -137 37
-70 37 -80 5 -59 -14 8 -34 16 -45 16 -11 0 -23 44 -26 97 -6 89 -9 94 -35 60
-40 -54 -40 48 1 146 16 39 26 78 20 86 -5 9 9 32 31 52 30 27 34 40 15 52
-47 28 159 103 252 91 l82 -11 -70 38 -70 37 70 0 c39 -1 106 -12 150 -25z
m2045 -4 c-74 -41 -70 -46 32 -34 57 6 107 -1 148 -23 70 -36 108 -80 51 -58
-19 8 -4 -16 34 -52 47 -44 57 -61 31 -53 -36 12 -36 10 -8 -23 37 -43 77
-155 76 -214 0 -40 -1 -41 -28 -5 -26 34 -29 29 -35 -60 -3 -57 -16 -97 -29
-97 -13 0 -30 -7 -39 -15 -33 -34 -47 -12 -19 31 37 56 67 247 37 228 -11 -7
-30 9 -43 37 -12 27 -32 49 -44 49 -12 0 -16 9 -9 20 11 18 -15 29 -55 22 -8
-1 -15 8 -15 20 0 12 13 17 28 12 15 -6 33 -6 39 0 15 14 -38 66 -67 66 -12 0
-16 10 -8 23 10 16 0 19 -34 10 -26 -7 -59 -13 -73 -13 -14 0 -61 -33 -105
-72 -44 -40 -80 -62 -80 -49 0 13 -9 18 -20 11 -28 -17 -25 17 4 46 19 19 14
24 -20 24 l-45 0 40 78 c41 81 115 116 251 119 l60 1 -55 -29z m-836 -31 c56
-12 97 -29 91 -38 -5 -9 9 -11 33 -5 28 7 39 4 30 -10 -8 -13 6 -28 32 -36
101 -30 275 -119 269 -137 -19 -56 -73 -58 -187 -7 -346 154 -703 156 -1074 6
-125 -51 -140 -53 -169 -24 -17 18 -28 35 -23 39 46 36 237 129 247 120 6 -7
12 -3 12 9 0 78 502 134 739 83z m2516 -463 c-4 -69 -7 -12 -7 125 0 138 3
194 7 125 4 -69 4 -181 0 -250z m-2668 209 c-35 -30 -74 -75 -87 -101 l-23
-47 -34 65 c-18 36 -38 62 -45 57 -18 -12 -79 44 -68 62 6 9 80 16 165 17
l155 0 -63 -53z m-251 -84 c7 -24 4 -25 -17 -5 -78 73 -49 9 39 -87 56 -61
102 -124 102 -140 0 -46 35 -32 48 20 6 26 52 89 101 140 93 96 98 108 25 69
-40 -22 -42 -21 -15 11 75 91 132 99 312 40 140 -46 162 -58 135 -78 -27 -20
-16 -30 76 -62 113 -39 458 -346 458 -407 0 -20 -12 -17 -43 11 -50 43 -36 13
39 -87 27 -36 43 -65 37 -65 -36 0 -137 82 -197 160 -61 81 -153 150 -172 130
-5 -4 25 -36 65 -71 89 -79 79 -95 -31 -51 -96 39 -121 32 -51 -14 54 -36 145
-121 203 -192 34 -41 28 -40 -46 14 -48 34 -113 67 -145 74 -33 7 -59 20 -59
28 0 88 -163 50 -265 -62 -93 -101 -116 -89 -45 24 71 113 55 117 -48 10 -180
-186 -282 -101 -118 99 51 62 72 73 121 66 34 -5 90 7 131 28 40 20 109 37
153 38 l81 0 -59 49 c-81 66 -64 72 95 31 l137 -34 -77 76 c-42 42 -96 79
-121 83 -25 3 -55 16 -68 29 -13 13 -62 17 -126 11 -102 -11 -168 29 -110 65
10 6 19 20 19 30 0 11 -37 -5 -82 -35 -76 -50 -84 -52 -107 -20 -24 31 -27 31
-59 -3 -41 -46 -24 -96 39 -112 59 -14 62 -33 10 -66 -33 -20 -38 -20 -28 5
18 49 -27 34 -72 -23 -22 -29 -41 -44 -42 -35 0 10 -18 -3 -39 -29 l-39 -46
-52 56 c-50 55 -51 55 -28 7 17 -36 6 -29 -40 25 -62 73 -134 110 -78 40 25
-32 24 -32 -23 -3 -59 37 -157 59 -170 38 -5 -9 11 -21 35 -28 38 -10 40 -15
15 -32 -26 -16 -25 -19 6 -20 115 -1 325 -196 245 -227 -19 -7 -25 -1 -19 16
6 15 0 34 -14 42 -15 10 -19 7 -10 -8 30 -48 -27 -20 -65 32 -22 30 -80 82
-129 114 -48 33 -102 83 -118 112 -19 33 -55 58 -95 66 -67 13 -67 53 0 53 42
0 50 32 19 80 -17 26 -19 26 -20 -2 0 -45 -62 -95 -136 -110 -56 -11 -257
-162 -239 -180 3 -3 53 8 110 24 159 47 213 32 119 -32 -85 -58 -97 -88 -23
-60 107 41 309 -28 309 -104 0 -53 84 -115 125 -93 37 20 36 24 -27 89 -43 45
-56 68 -36 68 77 0 200 -199 156 -252 -26 -31 -78 -38 -78 -10 0 9 -31 32 -70
51 -38 18 -70 43 -70 55 0 13 -6 17 -13 10 -7 -7 3 -36 22 -65 56 -85 17 -82
-64 5 -73 79 -220 145 -244 109 -6 -9 -51 -41 -101 -70 -49 -30 -112 -70 -140
-89 l-49 -34 45 64 c25 36 86 94 135 129 106 76 108 80 24 54 -147 -46 -148
-45 -67 39 62 65 69 80 35 71 -44 -12 -183 -153 -183 -187 0 -10 -37 -38 -81
-61 -90 -46 -91 -12 -1 69 23 21 42 47 42 58 0 11 -18 4 -40 -16 -94 -85 -50
-4 80 146 120 139 164 173 295 236 85 41 142 78 127 84 -17 6 -3 20 37 37 87
36 99 34 87 -13 -6 -22 -2 -51 8 -65 10 -14 18 -38 17 -55 -3 -53 170 -103
217 -62 32 26 36 26 23 2 -13 -23 -9 -23 18 3 28 26 31 40 12 75 -24 45 -51
54 -71 22 -30 -48 -190 56 -190 124 0 89 248 50 276 -44z m2784 -650 l0 -705
-45 -29 c-99 -64 -121 -58 -58 13 l61 70 -8 215 c-11 280 -11 276 0 416 19
222 20 639 3 695 -15 47 -12 53 15 43 29 -11 32 -87 32 -718z m-3416 599 c-19
-25 -70 -60 -113 -78 l-80 -31 70 58 c106 89 63 89 -69 0 -126 -85 -162 -93
-83 -19 125 118 239 178 275 147 32 -29 32 -33 0 -77z m1643 67 c113 -79 234
-181 225 -191 -5 -5 -39 13 -76 41 -91 69 -219 138 -231 126 -6 -6 36 -39 92
-74 57 -35 103 -72 103 -81 0 -19 -101 39 -122 69 -7 10 -20 16 -30 14 -28 -6
-94 93 -79 118 20 32 47 27 118 -22z m-1907 -285 c0 -19 -12 -25 -31 -18 -17
7 -28 4 -26 -6 15 -51 -175 -306 -217 -292 -25 8 -51 -50 -35 -77 7 -11 0 -17
-15 -13 -18 3 -30 -31 -38 -115 -7 -66 -23 -151 -35 -190 -29 -87 -30 -187 -3
-170 11 7 20 33 20 57 0 115 223 413 309 413 20 0 26 -61 10 -100 -2 -5 -2
-18 -1 -27 2 -9 -15 -21 -37 -27 -22 -6 -58 -41 -80 -78 -22 -37 -49 -68 -60
-68 -12 0 -21 -10 -21 -21 0 -12 11 -15 25 -7 14 8 -7 -21 -47 -64 -91 -99
-188 -341 -119 -299 11 7 19 -38 18 -110 0 -67 5 -128 11 -134 7 -6 12 26 12
73 0 46 8 79 18 73 10 -6 13 -49 7 -94 -9 -70 -6 -82 19 -72 17 7 42 1 55 -12
18 -18 32 -13 57 18 33 39 34 37 36 -72 1 -70 14 -130 35 -160 l33 -48 3 50
c2 27 10 -18 18 -101 8 -82 21 -172 28 -200 14 -49 12 -48 -38 10 -70 82 -174
301 -186 395 -6 46 -18 70 -29 59 -17 -17 1 -126 35 -214 16 -40 16 -40 -29 0
-52 45 -110 164 -146 300 -23 84 -27 89 -40 47 -9 -26 -12 34 -8 133 l7 180
-46 -100 -47 -100 -1 70 c-1 96 42 249 107 377 74 146 22 122 -61 -28 -47 -83
-67 -106 -67 -75 0 73 61 230 126 326 34 50 47 78 28 63 -22 -18 -34 -20 -34
-6 0 39 142 182 254 257 128 85 126 105 -5 47 -119 -52 -128 -44 -45 40 123
123 276 184 276 110z m2280 -46 c39 -28 81 -65 95 -82 46 -57 26 -65 -40 -17
-36 27 -78 44 -93 39 -20 -7 -25 0 -15 23 7 19 5 29 -4 24 -16 -10 -103 58
-103 80 0 21 91 -18 160 -67z m-691 37 c6 -10 -12 -23 -40 -30 -61 -16 -106 5
-66 30 35 23 92 23 106 0z m-277 -91 c-41 -38 -71 -77 -65 -86 21 -34 -124
-178 -146 -145 -43 64 45 209 161 266 110 54 131 39 50 -35z m1025 -119 c64
-33 223 -200 223 -234 0 -15 -11 -14 -34 5 -23 18 -20 6 11 -37 64 -93 116
-223 130 -326 l12 -90 -48 100 c-49 100 -96 170 -116 170 -6 0 19 -70 55 -155
37 -85 72 -209 78 -275 l12 -120 -50 95 c-59 111 -75 121 -49 30 11 -36 18
-114 17 -175 -1 -80 -6 -96 -16 -60 -14 47 -16 46 -29 -23 -18 -95 -122 -301
-175 -349 l-43 -38 33 77 c17 43 31 111 31 150 -2 67 -5 63 -37 -47 -19 -66
-58 -165 -87 -220 -58 -109 -166 -245 -146 -183 24 76 71 325 74 393 l3 70 8
-65 c11 -84 46 -64 46 25 0 86 18 133 45 117 14 -9 17 -1 9 20 -7 18 -4 33 6
33 10 0 27 29 38 65 10 36 19 49 20 30 1 -19 10 -35 21 -35 10 0 22 16 26 35
6 23 15 12 28 -35 18 -64 21 -56 32 99 13 188 -3 248 -94 356 -75 90 -81 84
-81 -74 0 -106 -8 -148 -35 -175 -33 -33 -35 -32 -35 25 0 32 -6 82 -14 109
-12 46 -10 48 23 20 34 -27 36 -26 24 15 -7 25 -18 65 -25 90 -7 25 -32 60
-55 79 -65 52 65 32 163 -25 l74 -43 -61 58 c-126 120 -188 236 -94 175 l55
-35 -48 53 c-27 29 -61 53 -77 53 -15 0 -22 8 -16 18 6 10 -4 23 -22 30 -18 7
-28 18 -22 24 68 68 334 -272 336 -430 0 -45 3 -47 21 -17 14 25 10 73 -13
166 -45 178 -47 195 -25 222 24 31 -92 221 -145 237 -21 7 -39 21 -39 31 0 26
12 24 77 -9z m-384 -233 c100 -43 167 -92 167 -123 0 -9 -20 -6 -45 8 -25 14
-58 27 -75 29 -108 13 -245 97 -185 113 19 5 37 10 38 12 2 1 47 -17 100 -39z
m-1644 2 c7 -10 -7 -15 -30 -11 -34 7 -38 3 -20 -19 29 -35 -48 -65 -86 -34
-18 15 -42 10 -84 -18 -32 -21 -53 -39 -46 -39 7 0 -24 -36 -68 -80 -44 -45
-86 -76 -92 -69 -7 6 -26 -41 -44 -105 -27 -96 -28 -120 -6 -142 25 -25 39
-124 18 -124 -88 0 -95 364 -7 387 28 7 37 21 29 43 -10 25 -4 30 27 20 30
-10 40 -4 40 25 0 102 320 246 369 166z m271 -31 c14 -16 37 -30 52 -30 16 0
28 -10 28 -21 0 -38 -105 -10 -135 36 -36 54 12 67 55 15z m980 4 c0 -14 -11
-37 -24 -50 -29 -29 -136 -32 -136 -4 0 11 17 20 38 20 20 0 48 14 62 30 31
37 60 39 60 4z m272 -51 c-11 -18 71 -63 115 -63 14 0 60 -36 103 -80 68 -70
80 -121 13 -55 -14 14 -3 -15 25 -65 53 -92 78 -236 27 -150 -13 22 -24 45
-25 50 -5 92 -250 297 -250 210 0 -44 -22 -37 -100 32 -65 58 -66 62 -20 51
47 -10 48 -9 12 17 -40 30 -34 36 58 57 22 4 43 9 46 11 4 1 2 -6 -4 -15z
m-1588 -54 c-66 -47 -61 -105 5 -61 76 49 135 42 71 -9 -33 -26 -69 -37 -103
-30 -77 14 -144 -48 -216 -199 -33 -72 -66 -130 -72 -130 -26 0 20 157 67 230
31 49 38 69 17 52 -19 -15 -38 -24 -43 -18 -18 17 130 144 195 168 96 35 131
33 79 -3z m720 -16 c68 -47 70 -47 120 -10 29 20 82 42 119 49 l67 11 -74 -45
c-41 -25 -79 -57 -85 -72 -8 -22 -1 -21 34 3 65 46 220 41 265 -9 36 -40 35
-40 -32 -28 l-68 12 89 -56 c49 -30 80 -58 68 -62 -14 -5 -8 -34 16 -81 20
-40 36 -105 36 -144 -1 -60 -4 -65 -19 -28 -34 84 -52 63 -44 -50 6 -89 1
-121 -25 -142 -29 -24 -30 -22 -12 27 30 80 26 84 -27 27 -53 -58 -196 -90
-287 -63 l-55 16 60 7 c61 8 121 45 72 45 -14 0 4 25 41 55 36 30 72 53 80 50
21 -6 44 167 28 209 -11 30 -8 29 28 -3 57 -51 51 -18 -12 73 -65 93 -84 99
-340 92 -216 -6 -236 -16 -311 -146 -20 -36 -19 -37 11 -13 30 25 33 19 33
-74 0 -94 6 -106 80 -165 44 -36 80 -77 80 -91 0 -17 24 -27 65 -27 49 -1 58
-5 35 -20 -51 -33 -151 -23 -190 20 -20 22 -46 40 -58 39 -12 0 -5 -13 17 -30
31 -23 32 -29 8 -29 -18 0 -55 19 -84 41 -57 45 -65 39 -32 -22 14 -26 14 -39
0 -39 -29 0 -46 85 -38 190 8 99 -5 114 -39 45 -20 -43 -21 -42 -23 16 0 33
16 94 37 135 20 40 28 68 17 61 -11 -7 -16 0 -11 15 5 15 44 49 88 75 l78 46
-65 -11 c-59 -10 -64 -7 -46 26 36 68 176 71 276 6 37 -24 44 -24 35 -2 -6 16
-44 48 -85 72 -60 35 -66 44 -33 45 23 1 74 -20 112 -46z m-397 -62 c6 -15 -4
-40 -21 -55 -18 -14 -50 -53 -71 -86 -29 -46 -35 -49 -25 -15 16 58 -1 57 -84
-7 -90 -68 -100 -53 -29 45 78 107 208 175 230 118z m1076 -20 c68 -46 172
-183 153 -201 -4 -5 -52 37 -106 92 -62 64 -110 97 -131 92 -25 -7 -31 1 -24
29 12 48 21 47 108 -12z m-423 -97 c36 -18 52 -44 57 -94 l6 -69 -43 39 c-68
62 -355 63 -406 3 -35 -43 -35 -43 -30 27 8 90 65 119 236 119 72 0 153 -11
180 -25z m541 -127 l81 -74 -11 59 c-6 32 -6 46 1 31 11 -23 16 -23 29 -1 20
31 119 -49 119 -95 0 -37 -50 -34 -89 4 -20 20 -31 23 -31 8 0 -14 -17 -19
-40 -13 -22 6 -40 2 -40 -8 0 -10 8 -18 19 -18 10 0 24 -18 31 -40 7 -22 20
-36 29 -30 74 45 164 27 192 -40 33 -79 41 -259 9 -210 -11 17 -20 50 -20 74
0 24 -9 49 -20 56 -14 9 -17 -14 -9 -64 14 -86 -49 -283 -105 -329 -29 -24
-31 -22 -18 23 45 144 57 261 38 344 l-21 86 -3 -70 c-3 -97 -40 -223 -77
-265 -49 -55 -65 -41 -31 26 65 130 57 328 -15 400 -39 39 -119 176 -119 204
0 27 18 16 101 -58z m-2801 24 c0 -15 20 -31 45 -35 44 -6 45 -11 45 -274 l0
-267 -65 -8 c-87 -9 -90 62 -5 143 33 32 60 64 60 72 0 8 -27 21 -60 28 l-60
13 0 179 c0 105 8 178 20 178 11 0 20 -13 20 -29z m1402 -46 c2 -19 2 -42 0
-50 -1 -8 11 -15 27 -15 24 0 22 -15 -10 -85 -21 -47 -39 -121 -39 -165 -1
-68 -5 -74 -23 -42 -13 22 -17 80 -9 145 14 122 6 132 -37 48 -40 -76 -40
-242 -1 -335 35 -82 24 -112 -20 -55 -29 38 -50 101 -87 259 -18 75 -19 72
-21 -62 -1 -78 11 -184 26 -235 36 -121 6 -120 -50 2 -29 63 -45 137 -46 218
-1 68 -4 121 -7 118 -3 -3 -18 -45 -33 -93 l-28 -88 -2 100 c-1 66 12 127 38
175 51 96 36 96 -29 0 -44 -64 -51 -68 -51 -30 0 82 70 129 169 114 80 -12 92
-8 142 49 63 70 88 78 91 27z m628 -74 c0 -96 -51 -138 -104 -86 -33 33 -32
35 7 35 57 0 101 54 70 85 -31 31 -29 60 2 50 14 -5 25 -41 25 -84z m124 47
c-16 -59 4 -98 48 -98 47 0 50 -31 5 -48 -64 -25 -126 122 -74 175 25 24 32
14 21 -29z m997 -148 c14 -59 13 -58 -46 20 -33 44 -55 88 -50 97 16 28 81
-52 96 -117z m-353 -77 c-2 -122 -3 -122 -19 -39 -9 46 -25 100 -35 120 -27
52 -8 94 28 64 19 -15 27 -62 26 -145z m-2932 -97 l84 -6 -74 -46 -73 -46 30
-71 c39 -95 24 -103 -45 -23 l-57 66 -67 -70 c-73 -75 -72 -77 -33 70 7 30 -7
50 -55 80 l-66 40 82 6 c77 6 84 11 108 90 l26 84 28 -84 c27 -79 34 -84 112
-90z m-446 68 c0 -16 -73 -84 -90 -84 -28 0 -5 78 25 86 57 15 65 15 65 -2z
m3259 -59 c26 -95 27 -239 1 -255 -12 -7 -21 19 -23 64 -2 52 -5 61 -11 26
-29 -174 -109 -324 -93 -175 l9 85 -35 -80 c-18 -44 -35 -134 -37 -200 -4
-170 -7 -194 -29 -180 -11 6 -33 -20 -49 -58 -30 -71 -131 -91 -233 -45 -23
10 -37 -5 -56 -58 -31 -84 -65 -81 -92 8 -15 47 -27 60 -50 50 -17 -8 -60 -15
-96 -14 -36 0 -65 -9 -65 -20 0 -47 -80 59 -92 122 -9 47 -18 61 -30 43 -27
-45 -45 33 -32 141 9 71 1 123 -28 194 l-40 97 9 -85 c5 -47 6 -85 2 -85 -17
0 -66 116 -79 186 -8 40 -22 69 -30 64 -9 -6 -12 -28 -6 -50 6 -22 1 -40 -12
-40 -28 0 -30 208 -1 261 31 58 53 48 80 -36 13 -41 52 -133 87 -205 45 -95
61 -155 59 -225 -2 -52 5 -95 15 -95 10 0 18 -22 18 -50 0 -93 102 -180 180
-153 81 28 239 30 310 3 107 -41 177 49 196 250 8 82 37 170 91 280 44 88 85
194 92 235 7 41 21 75 31 75 10 0 27 -34 39 -75z m2150 30 c-8 -25 -20 -47
-27 -50 -62 -27 -71 -44 -40 -69 98 -79 62 -110 -47 -41 -110 69 -110 83 3
149 113 67 128 68 111 11z m-3033 -162 c4 -29 14 -49 23 -44 18 11 49 -148 32
-165 -36 -35 -111 121 -111 233 0 64 48 44 56 -24z m614 46 c23 -36 -11 -173
-55 -220 -60 -64 -68 -21 -24 123 35 116 54 139 79 97z m-2984 -32 c35 -17 68
-35 72 -40 18 -15 -86 -107 -121 -107 -47 0 -48 51 -2 69 33 13 33 15 0 33
-87 49 -39 91 51 45z m2844 13 c19 -30 -10 -65 -37 -45 -22 16 -248 17 -312 2
-16 -4 -32 9 -36 28 -9 40 361 54 385 15z m2450 -931 c0 -755 0 -763 -43 -801
l-43 -38 16 60 c24 88 28 476 6 504 -11 13 -13 35 -4 49 25 41 29 108 30 534
l2 407 -67 71 -67 71 85 -47 85 -46 0 -764z m-3631 534 c18 -58 59 -161 91
-227 33 -67 53 -131 46 -144 -7 -12 -5 -15 5 -6 9 8 31 -14 49 -50 21 -46 43
-64 70 -61 30 4 49 -16 75 -78 50 -119 36 -115 -110 29 -176 174 -273 367
-286 574 -11 161 2 154 60 -37z m2040 56 c-20 -240 -94 -387 -306 -604 -132
-136 -158 -144 -100 -34 23 44 37 86 31 92 -6 6 -25 -16 -41 -48 -34 -65 -364
-385 -397 -385 -12 0 47 72 131 160 84 88 153 168 153 178 0 10 6 34 13 52 7
19 -29 -8 -79 -60 -51 -51 -102 -87 -113 -80 -12 7 -21 2 -21 -10 0 -12 -47
-67 -104 -122 -57 -55 -87 -94 -65 -87 24 7 17 -2 -16 -24 -30 -20 -55 -43
-55 -52 0 -9 -25 -11 -55 -5 -34 7 -42 5 -21 -5 45 -20 17 -65 -34 -55 -22 4
-47 8 -55 8 -8 1 -15 12 -15 24 0 16 9 15 30 -2 22 -18 30 -18 30 -2 0 13 -20
31 -45 41 -45 18 -45 18 5 21 32 2 39 7 20 15 -54 21 -238 188 -251 228 -7 21
-23 35 -36 30 -13 -4 -67 33 -121 84 l-98 93 46 -80 c25 -44 105 -141 177
-215 161 -165 136 -177 -42 -20 -190 168 -279 280 -256 323 12 23 6 61 -20
120 -60 134 -47 136 49 9 81 -108 236 -267 261 -267 5 0 5 29 -1 65 l-11 65
37 -46 c21 -26 53 -49 72 -51 18 -3 54 -23 79 -46 25 -22 75 -61 111 -86 l65
-45 115 87 c63 47 127 88 143 90 17 3 41 20 55 40 32 43 86 53 86 15 0 -65
110 33 237 211 66 94 85 81 32 -22 -98 -189 62 -2 177 208 35 63 69 115 77
115 16 0 -97 -298 -127 -335 -12 -14 -18 -30 -13 -34 14 -14 161 194 168 238
4 23 21 90 38 150 17 61 31 126 31 147 0 20 8 31 19 25 10 -7 15 -57 10 -112z
m-269 52 c0 -15 -12 -31 -27 -37 -16 -6 -38 -41 -51 -77 l-23 -66 76 74 c92
90 117 95 76 18 -44 -87 -311 -318 -311 -270 0 7 13 28 28 45 59 65 168 300
145 309 -13 6 -7 11 12 11 19 1 35 12 35 23 0 12 9 16 20 9 11 -7 20 -24 20
-39z m-1588 -58 c5 -15 36 -46 69 -70 l58 -44 -19 52 c-24 62 -24 69 -4 69 9
0 27 -30 40 -68 14 -37 57 -109 95 -160 39 -50 63 -92 53 -92 -54 0 -344 272
-344 323 0 27 40 20 52 -10z m621 -38 c25 -81 15 -115 -35 -115 -29 0 -38 14
-38 58 0 127 42 159 73 57z m438 -5 c14 -76 -15 -135 -59 -118 -27 10 -27 43
-3 133 21 75 47 69 62 -15z m-1496 -159 l48 -58 -46 -35 c-26 -20 -48 -45 -49
-57 -2 -11 -4 -27 -5 -34 -6 -30 -84 85 -103 151 -24 87 -26 148 -4 134 9 -5
13 19 9 54 l-9 64 55 -80 c31 -44 77 -106 104 -139z m2636 87 c-6 -56 -29
-143 -51 -192 l-39 -89 -79 44 -79 45 69 72 c38 40 89 106 112 147 59 103 81
94 67 -27z m-1396 11 c37 -2 71 5 77 14 19 31 51 18 44 -18 -10 -55 -236 -56
-236 -1 0 25 8 33 25 23 13 -8 54 -17 90 -18z m-1484 -72 c12 -58 -9 -96 -55
-97 -29 0 -42 144 -15 161 38 23 54 8 70 -64z m777 -235 c30 -25 45 -82 21
-82 -26 0 -127 124 -165 203 -85 177 -71 212 22 56 50 -83 105 -163 122 -177z
m2264 231 c-16 -76 -36 -98 -76 -82 -52 19 -6 168 48 154 33 -9 38 -22 28 -72z
m-4157 -280 c1 -128 10 -226 23 -239 32 -32 27 -48 -18 -60 -39 -10 -40 -1
-39 293 1 167 9 285 17 263 9 -22 17 -138 17 -257z m2794 253 c26 -15 -29 -20
-191 -20 -207 1 -222 4 -168 28 67 30 300 25 359 -8z m-1612 -121 c28 -54
-102 -114 -134 -62 -18 28 -14 41 22 66 57 40 89 39 112 -4z m2934 6 c36 -26
36 -31 7 -61 -44 -44 -138 -5 -123 52 12 45 62 49 116 9z m-2686 -69 c19 -71
-68 -114 -94 -48 -8 22 0 44 22 60 47 35 61 33 72 -12z m2426 -4 c6 -9 1 -36
-11 -58 l-22 -41 -58 41 c-72 51 -61 96 21 84 33 -5 64 -16 70 -26z m-2226
-73 c40 -44 26 -64 -100 -136 -36 -21 -65 -46 -65 -56 0 -11 16 -5 35 12 53
46 205 118 205 97 0 -11 -17 -25 -38 -32 -22 -6 -72 -34 -113 -62 l-74 -50
-57 66 c-74 87 -73 98 27 169 89 64 116 63 180 -8z m2106 -6 l88 -60 -44 -68
c-38 -58 -49 -64 -75 -42 -16 14 -52 37 -80 50 -47 22 -48 21 -11 -8 21 -17
45 -31 53 -31 7 0 19 -13 25 -29 10 -26 -27 -7 -160 85 -30 21 -31 24 -3 16
24 -7 31 -1 23 20 -9 23 56 115 89 126 4 1 47 -25 95 -59z m-2531 -83 c-47
-38 -49 -38 -75 -3 -24 33 -20 42 29 82 l56 45 19 -43 c16 -34 10 -50 -29 -81z
m2825 76 c69 -53 27 -111 -49 -68 -25 14 -48 27 -51 28 -3 1 0 17 7 35 15 40
46 41 93 5z m-1425 -92 c10 0 23 9 30 20 7 11 -1 15 -17 8 -16 -6 -34 -3 -39
6 -6 9 20 16 57 16 l67 0 -38 -60 c-52 -82 -69 -82 -118 -4 -53 87 -54 114 -1
58 22 -24 49 -44 59 -44z m-1300 -31 c0 -15 -12 -23 -27 -17 -16 6 -42 -4 -59
-21 -38 -38 -54 -39 -54 -6 0 30 101 96 124 82 9 -5 16 -22 16 -38z m2676 0
c25 -18 39 -40 33 -51 -6 -10 -25 -5 -42 13 -18 17 -47 25 -69 18 -28 -9 -35
-4 -26 20 16 39 47 39 104 0z m-2643 -125 c-33 -32 -73 -17 -73 28 0 17 9 25
20 18 11 -7 20 -2 20 11 0 18 8 17 31 -2 27 -22 27 -29 2 -55z m2243 -33 c20
-19 13 -40 -35 -106 l-60 -83 -90 51 c-107 59 -117 109 -40 193 l52 55 73 -43
c41 -24 85 -55 100 -67z m334 84 c9 8 10 -2 3 -23 -12 -32 -9 -34 17 -12 32
27 40 7 13 -36 -20 -31 -123 7 -123 46 0 37 24 51 50 30 13 -11 31 -13 40 -5z
m-2071 -53 c59 -83 52 -111 -44 -169 l-85 -52 -65 69 c-82 88 -81 99 10 159
99 64 134 63 184 -7z m-444 -57 c9 -28 -88 -72 -118 -53 -27 17 43 91 80 84
16 -3 33 -17 38 -31z m205 -153 c0 -31 -87 61 -126 132 -33 59 -28 57 45 -24
44 -49 81 -98 81 -108z m2118 153 c-76 -99 -138 -164 -138 -146 0 12 33 57 72
101 73 81 116 110 66 45z m150 5 c64 -49 27 -95 -47 -58 -61 31 -73 49 -48 75
21 20 53 15 95 -17z m-2409 -95 c-90 -55 -139 -71 -139 -45 0 38 104 93 129
69 10 -10 14 -21 10 -24z m2401 -49 c0 -36 -33 -33 -47 4 -7 17 -30 30 -52 30
-40 0 -53 21 -28 46 18 19 127 -50 127 -80z m-2604 -23 c4 -34 -3 -63 -14 -63
-30 0 -67 78 -54 113 19 50 62 19 68 -50z m1039 -59 c58 -38 105 -78 105 -89
0 -11 -12 -10 -28 4 -22 17 -32 17 -43 -1 -10 -16 -7 -19 11 -8 17 11 21 8 12
-7 -31 -50 -270 147 -272 224 0 18 15 9 215 -123z m1695 117 c12 -21 -44 -121
-68 -121 -12 0 -14 70 -5 125 4 22 59 18 73 -4z m-1953 -121 c77 -88 96 -120
69 -119 -43 2 -212 193 -195 220 16 26 9 32 126 -101z m1024 85 c-74 -128
-174 -211 -232 -191 l-57 19 123 83 c67 46 128 93 135 104 23 37 53 22 31 -15z
m197 -8 c-46 -87 -184 -219 -205 -198 -14 14 0 41 46 86 37 36 80 85 96 110
40 61 96 63 63 2z m-1770 -51 c-26 -19 -39 -20 -50 -3 -22 36 26 78 59 51 22
-18 20 -27 -9 -48z m2287 9 c28 9 30 2 13 -43 -10 -27 -17 -27 -65 3 -29 18
-55 34 -58 36 -3 2 0 18 7 37 11 30 15 30 45 -4 18 -21 44 -34 58 -29z m-3656
-27 c-9 -40 -11 -85 -5 -100 6 -16 0 -28 -12 -28 -24 0 -31 164 -9 187 32 31
42 8 26 -59z m1824 -13 c25 -36 64 -80 87 -99 40 -34 40 -34 -16 -87 l-56 -52
-84 94 c-158 178 -136 236 24 65 55 -58 105 -100 111 -94 7 7 -33 56 -88 109
-54 53 -94 103 -89 113 21 34 67 14 111 -49z m1385 48 c6 -9 -15 -41 -47 -72
-68 -65 -98 -38 -39 37 42 54 68 64 86 35z m-1745 -123 c-64 -30 -135 -79
-158 -109 l-43 -53 -33 51 c-19 29 -31 55 -27 58 161 129 292 181 342 138 32
-28 26 -35 -81 -85z m2134 33 c124 -73 138 -95 97 -154 l-30 -42 -45 61 c-26
35 -91 80 -152 105 -58 24 -101 51 -95 61 6 9 19 12 29 5 10 -6 13 4 6 22 -18
46 49 25 190 -58z m-330 9 c-51 -79 -187 -215 -187 -187 0 14 -13 25 -29 25
-43 0 -75 68 -46 97 26 26 75 31 75 7 0 -9 -11 -27 -24 -40 -13 -13 -18 -29
-12 -35 7 -6 53 32 104 86 101 109 178 139 119 47z m-1702 -107 c6 -14 52 -77
104 -140 82 -101 90 -145 16 -99 -31 20 -185 226 -185 248 0 26 55 19 65 -9z
m254 -225 c0 -24 -171 164 -200 220 -12 22 29 -14 89 -80 61 -66 111 -129 111
-140z m1419 126 c-92 -112 -122 -139 -135 -126 -10 10 204 247 215 238 4 -4
-32 -54 -80 -112z m188 112 c18 -19 -128 -221 -181 -250 -68 -37 -76 -8 -15
56 29 31 76 90 104 131 51 75 68 86 92 63z m-908 -172 c28 18 87 58 130 88
l78 56 121 -87 c66 -48 124 -97 129 -110 15 -46 -92 -22 -158 37 -84 74 -93
74 -179 1 -99 -85 -225 -84 -347 2 l-89 63 -85 -63 c-47 -35 -102 -63 -121
-63 -77 0 -52 43 75 128 l133 89 130 -87 c128 -85 132 -87 183 -54z m-1031 49
c69 -97 23 -160 -60 -82 -60 56 -79 117 -44 139 41 26 47 23 104 -57z m2073
45 c24 -28 -51 -163 -96 -173 -55 -12 -121 -8 -111 8 6 10 29 14 50 8 32 -8
35 -5 16 19 -19 22 -14 43 23 98 52 76 80 86 118 40z m-3674 -85 c16 -47 23
-85 16 -85 -34 0 -62 54 -62 117 0 84 8 79 46 -32z m274 -105 c40 -21 114
-193 93 -214 -20 -20 -182 101 -190 141 -15 81 25 112 97 73z m-180 -198 c141
-90 450 -243 582 -288 26 -9 67 -112 50 -128 -31 -33 -764 378 -822 461 -37
52 -40 101 -5 80 14 -8 102 -64 195 -125z m2304 3 c-10 -158 -12 -162 -60
-118 -21 18 -61 33 -91 33 l-53 0 0 -339 c0 -204 8 -344 20 -351 47 -29 9 -44
-161 -62 -177 -18 -181 -17 -166 22 8 22 18 195 22 385 l7 345 -59 0 c-32 0
-69 -13 -83 -30 -41 -50 -50 -35 -43 72 20 294 -63 103 -335 -761 l-35 -110
-154 -27 c-212 -38 -194 -63 -312 429 -58 240 -118 463 -133 495 -35 72 -51
64 164 79 l182 12 -9 -48 c-9 -45 94 -678 108 -665 27 27 185 654 176 697
l-11 53 475 3 c261 1 479 7 484 12 50 49 74 2 67 -126z m423 98 c-17 -34 -15
-800 2 -873 9 -38 -1 -40 -170 -40 -153 0 -177 4 -164 30 24 48 30 843 6 867
-41 41 -18 49 161 49 162 1 179 -3 165 -33z m811 -74 l88 -86 9 -307 9 -307
-92 -85 -92 -85 -315 14 c-368 15 -329 3 -305 88 27 92 26 813 0 829 -58 36
10 44 295 35 l315 -9 88 -87z m505 70 c199 -20 210 -24 282 -94 107 -104 111
-273 10 -365 l-65 -59 65 -52 c146 -116 59 -489 -114 -489 -352 1 -551 121
-551 334 l0 109 70 -12 c180 -31 180 -31 180 -92 0 -121 205 -142 216 -23 9
86 -23 121 -119 137 l-77 12 0 110 0 110 74 -12 c88 -14 126 12 126 87 0 117
-205 160 -216 45 -7 -70 -42 -80 -181 -52 -117 23 -40 302 90 326 1 1 96 -8
210 -20z m1157 -17 c0 -66 -631 -459 -671 -417 -42 42 34 114 214 202 108 54
244 132 302 174 119 86 155 95 155 41z m-525 -98 c17 -11 -5 -30 -65 -58 -50
-23 -90 -33 -90 -24 0 10 10 18 21 18 12 0 16 9 9 20 -30 49 64 82 125 44z"/>
<path d="M1142 2888 c-2 -34 -12 -41 -52 -33 l-50 10 0 -615 c0 -668 -1 -663
102 -496 39 63 42 87 30 244 -14 188 -7 212 49 177 76 -48 204 162 132 216
-36 26 -44 69 -13 69 11 0 20 10 20 23 0 13 -16 9 -39 -12 -90 -82 -172 16
-155 187 6 62 4 148 -5 192 -9 44 -17 61 -19 38z m118 -514 c20 -7 15 -11 -14
-12 -23 -1 -47 -18 -52 -37 -5 -19 -10 0 -12 44 -2 66 2 74 23 47 14 -17 39
-36 55 -42z"/>
<path d="M1214 2574 c-15 -41 16 -79 58 -71 54 11 50 85 -4 93 -24 3 -48 -6
-54 -22z"/>
<path d="M1192 1732 c7 -18 24 -32 38 -32 14 0 31 -28 37 -61 11 -55 19 -61
78 -55 102 10 91 59 -28 116 -140 68 -139 67 -125 32z"/>
<path d="M1011 1542 c-5 -9 13 -26 41 -39 65 -30 66 -29 55 13 -10 36 -78 55
-96 26z"/>
<path d="M5053 4827 c-25 -26 -13 -81 27 -117 36 -32 40 -62 40 -268 l0 -231
43 43 c36 36 39 49 19 74 -31 37 -12 72 39 72 31 0 39 14 39 68 0 58 -6 67
-40 58 -28 -8 -40 -1 -40 24 0 18 18 38 40 44 42 11 59 106 19 106 -11 0 -39
32 -62 70 -38 65 -91 89 -124 57z"/>
<path d="M4744 4045 l6 -703 60 58 c33 31 85 60 116 63 l56 7 -1 580 0 580
-53 -7 c-38 -5 -71 12 -121 60 l-68 66 5 -704z"/>
<path d="M5217 4315 c-2 -25 -4 -56 -5 -69 -2 -13 -23 -45 -47 -71 -43 -45
-45 -63 -45 -382 l0 -335 -60 -34 c-59 -33 -79 -90 -40 -114 38 -23 94 29 129
119 19 50 52 101 73 112 43 23 61 819 18 819 -11 0 -21 -20 -23 -45z"/>
<path d="M5029 2938 c-7 -12 10 -46 39 -76 45 -47 52 -71 52 -189 0 -128 2
-133 40 -113 22 12 40 33 40 48 0 15 14 38 30 52 64 53 38 184 -49 245 -82 58
-130 69 -152 33z"/>
<path d="M5168 2538 c-48 -53 -72 -549 -26 -534 67 22 107 117 107 256 1 123
6 140 46 159 56 25 57 69 5 121 -51 51 -84 51 -132 -2z"/>
<path d="M5225 1995 c-120 -97 -150 -206 -60 -219 25 -3 56 -30 71 -61 14 -30
41 -56 60 -57 19 -1 5 -10 -30 -20 -73 -21 -107 -121 -74 -214 34 -97 68 -75
68 44 0 109 107 272 179 272 34 0 68 81 43 106 -12 12 -22 43 -22 68 0 25 -9
46 -19 46 -11 0 -34 27 -51 60 -39 76 -40 76 -165 -25z"/>
<path d="M5053 1691 c-29 -27 -53 -59 -53 -70 0 -12 -47 -21 -110 -21 l-110 0
1 -65 c0 -36 12 -86 27 -113 l26 -47 17 57 c8 32 17 63 18 68 6 32 37 57 84
69 73 18 154 84 161 132 7 50 3 49 -61 -10z"/>
<path d="M5069 1598 c-25 -39 40 -86 69 -50 14 17 20 40 13 51 -17 27 -65 27
-82 -1z"/>
<path d="M4933 1527 c-25 -26 -13 -88 20 -101 45 -17 95 50 64 87 -24 29 -62
35 -84 14z"/>
<path d="M2770 5012 c-141 -29 -370 -111 -370 -133 0 -8 69 7 153 33 340 104
621 101 929 -13 214 -79 241 -73 63 13 -242 117 -517 152 -775 100z"/>
<path d="M2886 1992 c141 -136 127 -137 268 0 l116 113 -117 -103 c-141 -124
-120 -124 -264 0 l-119 102 116 -112z"/>
<path d="M3086 1887 l-64 -51 -66 44 -66 43 60 -51 c33 -29 72 -52 86 -52 15
0 21 -9 14 -20 -7 -12 -23 -15 -34 -7 -13 7 -16 4 -9 -8 7 -12 29 -18 48 -15
19 4 43 8 54 8 10 1 1 15 -20 30 -44 32 32 121 87 102 14 -5 21 -1 14 10 -18
29 -32 24 -104 -33z"/>
<path d="M1920 2265 c0 -19 8 -47 18 -62 24 -38 48 6 32 57 -16 49 -50 53 -50
5z"/>
<path d="M4045 2254 c-18 -40 -14 -51 22 -73 35 -21 39 -21 18 0 -18 20 -18
33 -1 53 15 18 16 34 3 47 -13 13 -27 4 -42 -27z"/>
<path d="M3788 1998 c-37 -41 -37 -42 2 -71 89 -66 105 -68 137 -18 33 50 32
52 -79 117 -13 7 -39 -6 -60 -28z"/>
<path d="M2115 1988 c-54 -29 -53 -82 1 -116 40 -24 143 70 118 109 -28 46
-46 47 -119 7z"/>
<path d="M2440 447 c0 -15 -9 -27 -20 -27 -11 0 -20 -13 -20 -30 0 -20 20 -30
60 -30 33 0 60 10 60 21 0 12 8 16 19 10 10 -7 17 6 16 29 -4 43 -3 43 -70 50
-27 3 -45 -6 -45 -23z"/>
<path d="M1550 356 c-44 -23 -90 -74 -90 -100 0 -29 149 -17 220 19 39 19 70
49 70 65 0 37 -82 51 -119 21 -17 -14 -30 -15 -34 -3 -4 12 -22 12 -47 -2z"/>
<path d="M3024 468 c-35 -38 -12 -69 42 -59 24 4 61 9 82 10 35 1 36 4 6 37
-40 44 -96 49 -130 12z"/>
<path d="M3660 779 l0 -281 95 6 95 6 11 250 c12 285 7 300 -113 300 l-88 0 0
-281z"/>
<path d="M3568 483 c6 -10 -20 -14 -59 -10 -74 8 -95 -27 -42 -71 101 -83 594
-29 531 58 -18 25 -20 25 -11 -5 10 -30 6 -31 -28 -10 -30 19 -44 19 -55 2
-19 -31 -172 -72 -180 -48 -4 10 -18 14 -32 9 -14 -5 -42 13 -63 41 -35 46
-86 75 -61 34z"/>
<path d="M4349 321 c26 -29 59 -42 100 -39 34 2 84 -6 111 -17 28 -12 58 -14
67 -5 9 9 40 3 69 -11 65 -34 142 15 101 64 -26 32 -85 37 -66 5 9 -15 0 -15
-30 1 -33 18 -50 18 -72 0 -20 -17 -36 -18 -54 -3 -14 12 -79 27 -145 35
l-120 14 39 -44z"/>
</g>
</svg>
